# xmcd CD database file
#
# Track frame offsets:
#	150
#	14697
#	38320
#	53162
#	64890
#	78530
#	95002
#	110542
#	135400
#	155327
#	180907
#	194757
#
# Disc length: 2847 seconds
#
# Revision: 0
# Processed by: cddbd v1.5.1PL0 Copyright (c) Steve Scherf et al.
# Submitted via: CDex 1.51
#
DISCID=9a0b1d0c
DTITLE=The Helena Scene - Blues Across America
DYEAR=2000
DGENRE=Blues
TTITLE0=Better Take It Slow
TTITLE1=Hey Baby
TTITLE2=Keep Things Right
TTITLE3=Come here Baby
TTITLE4=She's too Mean
TTITLE5=Blue Party
TTITLE6=Rainy Weather Blues
TTITLE7=I Couldn't Help but Cry
TTITLE8=Automobile
TTITLE9=Living on Borrowed Time
TTITLE10=This Thing Called Love
TTITLE11=Heat up The Oven
EXTD=YEAR: 2000
EXTT0=
EXTT1=
EXTT2=
EXTT3=
EXTT4=
EXTT5=
EXTT6=
EXTT7=
EXTT8=
EXTT9=
EXTT10=
EXTT11=
PLAYORDER=
